<svg width="516" height="390.00000000000006" xmlns="http://www.w3.org/2000/svg">

 <g>
  <title>background</title>
  <rect fill="none" id="canvas_background" height="392" width="518" y="-1" x="-1"/>
 </g>
 <g>
  <title>Layer 1</title>
  <path id="svg_1" d="m321,376.98438c-26.47266,0 -48,-21.52735 -48,-48s21.52734,-48 48,-48c4.42578,0 8,3.57421 8,8c0,4.42187 -3.57422,8 -8,8c-17.64844,0 -32,14.35156 -32,32s14.35156,32 32,32c4.42578,0 8,3.57421 8,8c0,4.42187 -3.57422,8 -8,8zm0,0"/>
  <path id="svg_2" d="m505,296.98438l-184,0c-4.42578,0 -8,-3.57813 -8,-8c0,-4.42579 3.57422,-8 8,-8l184,0c4.42578,0 8,3.57421 8,8c0,4.42187 -3.57422,8 -8,8zm0,0"/>
  <path id="svg_3" d="m505,376.98438l-184,0c-4.42578,0 -8,-3.57813 -8,-8c0,-4.42579 3.57422,-8 8,-8l184,0c4.42578,0 8,3.57421 8,8c0,4.42187 -3.57422,8 -8,8zm0,0"/>
  <path id="svg_4" d="m489,376.98438c-4.42578,0 -8,-3.57813 -8,-8l0,-80c0,-4.42579 3.57422,-8 8,-8s8,3.57421 8,8l0,80c0,4.42187 -3.57422,8 -8,8zm0,0"/>
  <path id="svg_5" d="m457,272.98438c-4.42578,0 -8,-3.57813 -8,-8c0,-4.42579 3.57422,-8 8,-8c13.23047,0 24,-10.76954 24,-24s-10.76953,-24 -24,-24c-4.42578,0 -8,-3.57813 -8,-8c0,-4.41797 3.57422,-8 8,-8c22.05469,0 40,17.94531 40,40s-17.94531,40 -40,40zm0,0"/>
  <path id="svg_6" d="m457,272.98438l-152,0c-4.42578,0 -8,-3.57813 -8,-8c0,-4.42579 3.57422,-8 8,-8l152,0c4.42578,0 8,3.57421 8,8c0,4.42187 -3.57422,8 -8,8zm0,0"/>
  <path id="svg_7" d="m457,208.98438l-152,0c-4.42578,0 -8,-3.57813 -8,-8c0,-4.41797 3.57422,-8 8,-8l152,0c4.42578,0 8,3.58203 8,8c0,4.42187 -3.57422,8 -8,8zm0,0"/>
  <path id="svg_8" d="m321,272.98438c-4.42578,0 -8,-3.57813 -8,-8l0,-64c0,-4.41797 3.57422,-8 8,-8s8,3.58203 8,8l0,64c0,4.42187 -3.57422,8 -8,8zm0,0"/>
  <path id="svg_9" d="m9,312.96875c-4.42578,0 -8,-3.57812 -8,-8c0,-30.86328 25.12891,-55.98437 56,-55.98437c4.42578,0 8,3.57421 8,8c0,4.42187 -3.57422,8 -8,8c-22.05469,0 -40,17.9375 -40,39.98437c0,4.42188 -3.57422,8 -8,8zm0,0"/>
  <path id="svg_10" d="m89,264.98438l-32,0c-4.42578,0 -8,-3.57813 -8,-8c0,-4.42579 3.57422,-8 8,-8l32,0c4.42578,0 8,3.57421 8,8c0,4.42187 -3.57422,8 -8,8zm0,0"/>
  <path id="svg_11" d="m9,360.98438c-4.42578,0 -8,-3.57813 -8,-8l0,-45.71875c0,-4.42579 3.57422,-8 8,-8s8,3.57421 8,8l0,45.71875c0,4.42187 -3.57422,8 -8,8zm0,0"/>
  <path id="svg_12" d="m249,312.96875c-4.42578,0 -8,-3.57812 -8,-8c0,-22.04687 -17.94531,-39.98437 -40,-39.98437c-4.42578,0 -8,-3.57813 -8,-8c0,-4.42579 3.57422,-8 8,-8c30.87109,0 56,25.12109 56,55.98437c0,4.42188 -3.57422,8 -8,8zm0,0"/>
  <path id="svg_13" d="m201,264.98438l-32,0c-4.42578,0 -8,-3.57813 -8,-8c0,-4.42579 3.57422,-8 8,-8l32,0c4.42578,0 8,3.57421 8,8c0,4.42187 -3.57422,8 -8,8zm0,0"/>
  <path id="svg_14" d="m249,360.98438c-4.42578,0 -8,-3.57813 -8,-8l0,-45.71875c0,-4.42579 3.57422,-8 8,-8s8,3.57421 8,8l0,45.71875c0,4.42187 -3.57422,8 -8,8zm0,0"/>
  <path id="svg_15" d="m233,376.98438l-208,0c-4.42578,0 -8,-3.57813 -8,-8c0,-4.42579 3.57422,-8 8,-8l208,0c4.42578,0 8,3.57421 8,8c0,4.42187 -3.57422,8 -8,8zm0,0"/>
  <path id="svg_16" d="m89,264.98438c-4.42578,0 -8,-3.57813 -8,-8l0,-25.60938c0,-4.42187 3.57422,-8 8,-8s8,3.57813 8,8l0,25.60938c0,4.42187 -3.57422,8 -8,8zm0,0"/>
  <path id="svg_17" d="m169,264.98438c-4.42578,0 -8,-3.57813 -8,-8l0,-25.60938c0,-4.42187 3.57422,-8 8,-8s8,3.57813 8,8l0,25.60938c0,4.42187 -3.57422,8 -8,8zm0,0"/>
  <path id="svg_18" d="m129,248.98438c-52.9375,0 -96,-43.0625 -96,-96c0,-4.41797 3.57422,-8 8,-8s8,3.58203 8,8c0,44.11328 35.88672,80 80,80s80,-35.88672 80,-80c0,-4.41797 3.57422,-8 8,-8s8,3.58203 8,8c0,52.9375 -43.0625,96 -96,96zm0,0"/>
  <path id="svg_19" d="m41,161c-4.42578,0 -8,-3.58594 -8,-8l0,-72c0,-4.41406 3.57422,-8 8,-8s8,3.58594 8,8l0,72c0,4.41406 -3.57422,8 -8,8zm0,0"/>
  <path id="svg_20" d="m217,161c-4.42578,0 -8,-3.58594 -8,-8l0,-72c0,-4.41406 3.57422,-8 8,-8s8,3.58594 8,8l0,72c0,4.41406 -3.57422,8 -8,8zm0,0"/>
  <path id="svg_21" d="m217,89c-4.42578,0 -8,-3.58594 -8,-8c0,-17.64844 -14.35156,-32 -32,-32c-4.42578,0 -8,-3.58594 -8,-8s3.57422,-8 8,-8c26.47266,0 48,21.52734 48,48c0,4.41406 -3.57422,8 -8,8zm0,0"/>
  <path id="svg_22" d="m177,49c-4.42578,0 -8,-3.58594 -8,-8l0,-32c0,-4.41406 3.57422,-8 8,-8s8,3.58594 8,8l0,32c0,4.41406 -3.57422,8 -8,8zm0,0"/>
  <path id="svg_23" d="m177,17l-64,0c-4.42578,0 -8,-3.58594 -8,-8s3.57422,-8 8,-8l64,0c4.42578,0 8,3.58594 8,8s-3.57422,8 -8,8zm0,0"/>
  <path id="svg_24" d="m41,89c-4.42578,0 -8,-3.58594 -8,-8c0,-44.11328 35.88672,-80 80,-80c4.42578,0 8,3.58594 8,8s-3.57422,8 -8,8c-35.28906,0 -64,28.71094 -64,64c0,4.41406 -3.57422,8 -8,8zm0,0"/>
  <path id="svg_25" d="m217,129c-2.04687,0 -4.09766,-0.78516 -5.65625,-2.34375l-24,-24c-3.12891,-3.12891 -3.12891,-8.18359 0,-11.3125s8.18359,-3.12891 11.3125,0l24,24c3.12891,3.12891 3.12891,8.18359 0,11.3125c-1.55859,1.56641 -3.60937,2.34375 -5.65625,2.34375zm0,0"/>
  <path id="svg_26" d="m129,121c-35.87891,0 -66.50391,-16.26562 -67.79297,-16.96094c-3.88672,-2.08593 -5.34375,-6.93359 -3.2539,-10.82422c2.08593,-3.8789 6.91796,-5.35156 10.83203,-3.26171c0.27734,0.15234 28.48047,15.04687 60.21484,15.04687c31.89453,0 59.92969,-14.89453 60.20703,-15.03906c3.88281,-2.11328 8.7461,-0.64063 10.83203,3.24609c2.09766,3.89063 0.63282,8.7461 -3.2539,10.83203c-1.28125,0.69532 -31.90625,16.96094 -67.78516,16.96094zm0,0"/>
  <path id="svg_27" d="m41,129c-2.04687,0 -4.09766,-0.78516 -5.65625,-2.34375c-3.12891,-3.12891 -3.12891,-8.18359 0,-11.3125l24,-24c3.12891,-3.12891 8.18359,-3.12891 11.3125,0s3.12891,8.18359 0,11.3125l-24,24c-1.55859,1.56641 -3.60937,2.34375 -5.65625,2.34375zm0,0"/>
  <path id="svg_28" d="m113,280.98438c-1.51953,0 -3.0625,-0.44141 -4.43359,-1.34375l-24.00782,-16c-3.67187,-2.45704 -4.67187,-7.41797 -2.21484,-11.09766c2.44922,-3.67969 7.39844,-4.66406 11.09766,-2.21484l24.00781,16c3.67187,2.45703 4.67187,7.41406 2.21484,11.09765c-1.53515,2.3086 -4.07812,3.5586 -6.66406,3.5586zm0,0"/>
  <path id="svg_29" d="m113.01563,280.98438c-2.9375,0 -5.75782,-1.61719 -7.16797,-4.42579c-1.97657,-3.94921 -0.375,-8.75781 3.57812,-10.73437l15.98828,-8c3.95313,-1.96094 8.76172,-0.375 10.73828,3.57422c1.97657,3.95312 0.375,8.76172 -3.57812,10.73828l-15.98828,8c-1.14453,0.57422 -2.3711,0.84766 -3.57031,0.84766zm0,0"/>
  <path id="svg_30" d="m145,280.98438c-2.58594,0 -5.12891,-1.25 -6.66406,-3.5586c-2.45703,-3.68359 -1.45703,-8.64062 2.21484,-11.09765l24.00781,-16c3.67969,-2.44922 8.64844,-1.46485 11.09766,2.21484c2.45703,3.67969 1.45703,8.64062 -2.21484,11.09766l-24.00782,16c-1.37109,0.91015 -2.91406,1.34375 -4.43359,1.34375zm0,0"/>
  <path id="svg_31" d="m144.98438,280.98438c-1.19922,0 -2.42579,-0.27344 -3.57032,-0.83985l-15.98828,-8c-3.95312,-1.97656 -5.55469,-6.78515 -3.57812,-10.73828c1.98437,-3.94922 6.78515,-5.53516 10.73828,-3.57422l15.98828,8c3.95312,1.97656 5.55469,6.78516 3.57812,10.73438c-1.41015,2.80078 -4.23046,4.41797 -7.16796,4.41797zm0,0"/>
  <path id="svg_32" d="m233,376.98438c-4.42578,0 -8,-3.57813 -8,-8c0,-4.42579 3.57422,-8 8,-8c4.41406,0 8,-3.58594 8,-8c0,-4.42579 3.57422,-8 8,-8s8,3.57421 8,8c0,13.23828 -10.76953,24 -24,24zm0,0"/>
  <path id="svg_33" d="m25,376.98438c-13.23047,0 -24,-10.76954 -24,-24c0,-4.42579 3.57422,-8 8,-8s8,3.57421 8,8c0,4.41406 3.58594,8 8,8c4.42578,0 8,3.57421 8,8c0,4.42187 -3.57422,8 -8,8zm0,0"/>
  <path id="svg_34" d="m137.01563,377.16016c-0.72657,0 -1.47266,-0.09766 -2.19922,-0.30469c-4.25,-1.20703 -6.71094,-5.64063 -5.50391,-9.88672l31.99219,-112.16797c1.21484,-4.25 5.65625,-6.72265 9.88672,-5.5039c4.25,1.20703 6.71093,5.64062 5.5039,9.88671l-31.99218,112.16797c-1.00782,3.51953 -4.20704,5.8086 -7.6875,5.8086zm0,0"/>
  <path id="svg_35" d="m153.01563,377.16016c-1.27344,0 -2.56641,-0.30469 -3.77735,-0.95313c-3.89453,-2.08594 -5.35937,-6.93359 -3.26172,-10.83203l36.35938,-67.75781l-2.8086,-2.75391c-2.47265,-2.42187 -3.10156,-6.16015 -1.5664,-9.2539l15.89453,-32.16797c1.95312,-3.95313 6.75391,-5.57813 10.71875,-3.625c3.96094,1.96093 5.58594,6.75781 3.625,10.71875l-13.32813,26.96875l2.95313,2.89453c2.53516,2.49609 3.13672,6.36328 1.44922,9.49609l-39.20313,73.05078c-1.4375,2.67969 -4.20703,4.21485 -7.05468,4.21485zm0,0"/>
  <path id="svg_36" d="m120.95313,377.16016c-3.48047,0 -6.67969,-2.28907 -7.6875,-5.8086l-31.99219,-112.16797c-1.21094,-4.24609 1.24609,-8.67968 5.5039,-9.88672c4.25391,-1.17578 8.67188,1.2461 9.88672,5.50391l31.99219,112.16797c1.20703,4.24609 -1.25,8.67969 -5.50391,9.88672c-0.72656,0.19922 -1.47265,0.30469 -2.19921,0.30469zm0,0"/>
  <path id="svg_37" d="m104.95313,377.16016c-2.84766,0 -5.61719,-1.52735 -7.0586,-4.21485l-39.19922,-73.05078c-1.6875,-3.13281 -1.09375,-7 1.44922,-9.49609l2.95313,-2.89453l-13.32813,-26.96875c-1.96094,-3.96094 -0.33594,-8.75782 3.6211,-10.71875c3.97656,-1.96094 8.76953,-0.32813 10.72265,3.625l15.89453,32.16796c1.52735,3.10157 0.89453,6.83204 -1.5664,9.25391l-2.8086,2.75391l36.35938,67.75781c2.09765,3.89062 0.63281,8.74609 -3.26563,10.83203c-1.20703,0.64844 -2.5039,0.95313 -3.77343,0.95313zm0,0"/>
  <path id="svg_38" d="m121,305.16016c-3.35937,0 -6.48828,-2.12891 -7.59375,-5.4961l-7.99219,-24.16797c-1.39062,-4.18359 0.89063,-8.71875 5.08985,-10.10546c4.18359,-1.4375 8.71875,0.89062 10.10547,5.08984l7.99218,24.16797c1.39063,4.18359 -0.89062,8.71875 -5.08984,10.10547c-0.83203,0.27734 -1.67969,0.40625 -2.51172,0.40625zm0,0"/>
  <path id="svg_39" d="m137,305c-0.83203,0 -1.6875,-0.13672 -2.51953,-0.40625c-4.19141,-1.40234 -6.46484,-5.92969 -5.07422,-10.12109l7.99219,-24.01563c1.40234,-4.1914 5.92187,-6.44922 10.12109,-5.07422c4.19141,1.40235 6.46485,5.92969 5.07422,10.1211l-7.99219,24.01562c-1.12109,3.36719 -4.25,5.48047 -7.60156,5.48047zm0,0"/>
  <path id="svg_40" d="m111.83984,345.16016c-0.59375,0 -1.1914,-0.0625 -1.80078,-0.19922c-4.30468,-0.98438 -6.99218,-5.27344 -6.00781,-9.58594l9.16797,-40c0.99219,-4.30469 5.27344,-7.03125 9.58594,-6.00781c4.30468,0.98437 6.99218,5.27344 6.00781,9.58594l-9.16797,40c-0.83984,3.69531 -4.12891,6.20703 -7.78516,6.20703zm0,0"/>
  <path id="svg_41" d="m146.12891,345.16016c-3.64844,0 -6.94532,-2.51172 -7.80078,-6.22266l-9.12891,-40.16016c-0.98438,-4.30468 1.71094,-8.59375 6.02344,-9.57031c4.28125,-1.04687 8.58593,1.72266 9.57812,6.02344l9.13672,40.16016c0.97266,4.30468 -1.72266,8.59375 -6.03516,9.57031c-0.58984,0.13672 -1.1914,0.19922 -1.77343,0.19922zm0,0"/>
  <path id="svg_42" d="m137,305.16016l-16,0c-4.42578,0 -8,-3.57422 -8,-8c0,-4.42578 3.57422,-8 8,-8l16,0c4.42578,0 8,3.57422 8,8c0,4.42578 -3.57422,8 -8,8zm0,0"/>
  <path id="svg_43" d="m457.10547,49.16016l-111.95313,0c-4.42578,0 -8,-3.58594 -8,-8c0,-4.41797 3.57422,-8 8,-8l111.95313,0c4.42187,0 8,3.58203 8,8c0,4.41406 -3.58594,8 -8,8zm0,0"/>
  <path id="svg_44" d="m401.13672,185.17578c-4.42578,0 -8,-3.58203 -8,-8l0,-160.01562c0,-4.41797 3.57422,-8 8,-8c4.42187,0 8,3.58203 8,8l0,160.01562c0,4.41797 -3.58594,8 -8,8zm0,0"/>
  <path id="svg_45" d="m457.12891,185.17578l-111.98438,0c-4.42578,0 -8,-3.58203 -8,-8c0,-4.41406 3.57422,-8 8,-8l111.98438,0c4.42187,0 8,3.58594 8,8c0,4.41797 -3.58594,8 -8,8zm0,0"/>
  <path id="svg_46" d="m345.15234,137.16016c-17.64843,0 -32,-14.35157 -32,-32c0,-4.41797 3.57422,-8 8,-8c4.42188,0 8,3.58203 8,8c0,8.82422 7.17579,16 16,16c8.82422,0 16,-7.17578 16,-16c0,-4.41797 3.57422,-8 8,-8c4.42188,0 8,3.58203 8,8c0,17.64062 -14.35156,32 -32,32zm0,0"/>
  <path id="svg_47" d="m369.15234,113.16016l-48,0c-4.42578,0 -8,-3.58594 -8,-8c0,-4.41797 3.57422,-8 8,-8l48,0c4.42188,0 8,3.58203 8,8c0,4.41406 -3.58593,8 -8,8zm0,0"/>
  <path id="svg_48" d="m321.15234,113.16016c-0.9375,0 -1.8789,-0.16797 -2.8164,-0.51172c-4.13672,-1.55078 -6.22266,-6.16797 -4.67969,-10.30469l24,-64c1.54297,-4.14453 6.16016,-6.21484 10.30469,-4.67969c4.13672,1.55078 6.22265,6.16797 4.67969,10.30469l-24,64c-1.19922,3.20703 -4.25782,5.19141 -7.48829,5.19141zm0,0"/>
  <path id="svg_49" d="m369.15234,113.16016c-3.23046,0 -6.28906,-1.98438 -7.49609,-5.19141l-24,-64c-1.54297,-4.13672 0.54297,-8.74609 4.67969,-10.30469c4.14453,-1.52734 8.7539,0.54297 10.30469,4.67969l24,64c1.54296,4.13672 -0.54297,8.74609 -4.67969,10.30469c-0.92969,0.34375 -1.8711,0.51172 -2.8086,0.51172zm0,0"/>
  <path id="svg_50" d="m457.10547,137.16016c-17.64844,0 -32,-14.35157 -32,-32c0,-4.41797 3.57422,-8 8,-8c4.42187,0 8,3.58203 8,8c0,8.82422 7.17578,16 16,16s16,-7.17578 16,-16c0,-4.41797 3.57422,-8 8,-8c4.42187,0 8,3.58203 8,8c0,17.64062 -14.35156,32 -32,32zm0,0"/>
  <path id="svg_51" d="m481.10547,113.16016l-48,0c-4.42578,0 -8,-3.58594 -8,-8c0,-4.41797 3.57422,-8 8,-8l48,0c4.42187,0 8,3.58203 8,8c0,4.41406 -3.58594,8 -8,8zm0,0"/>
  <path id="svg_52" d="m433.10547,113.16016c-0.9375,0 -1.88281,-0.16797 -2.81641,-0.51172c-4.13672,-1.55078 -6.22656,-6.16797 -4.67968,-10.30469l24,-64c1.55078,-4.14453 6.16796,-6.21484 10.30078,-4.67969c4.13672,1.55078 6.22656,6.16797 4.68359,10.30469l-24,64c-1.20312,3.20703 -4.25781,5.19141 -7.48828,5.19141zm0,0"/>
  <path id="svg_53" d="m481.10547,113.16016c-3.23438,0 -6.28906,-1.98438 -7.49609,-5.19141l-24,-64c-1.54688,-4.13672 0.54296,-8.74609 4.67968,-10.30469c4.13672,-1.52734 8.75,0.54297 10.30469,4.67969l24,64c1.54297,4.13672 -0.54687,8.74609 -4.68359,10.30469c-0.92578,0.34375 -1.8711,0.51172 -2.80469,0.51172zm0,0"/>
  <g stroke="null" id="svg_63">
   <ellipse stroke="#000" ry="52.28035" rx="56.89228" id="svg_58" cy="332.48915" cx="448.64386" fill-opacity="null" stroke-opacity="null" stroke-width="1.5" fill="#fff"/>
   <line stroke="#000" stroke-linecap="null" stroke-linejoin="null" id="svg_61" y2="372.20905" x2="447.93308" y1="293.0066" x1="447.93308" fill-opacity="null" stroke-opacity="null" stroke-width="7.5" fill="none"/>
   <line stroke="#000" stroke-linecap="null" stroke-linejoin="null" id="svg_62" y2="332.7813" x2="491.50245" y1="332.7813" x1="403.52935" fill-opacity="null" stroke-opacity="null" stroke-width="7.5" fill="none"/>
  </g>
 </g>
</svg>